<mxfile host="app.diagrams.net" modified="2023-08-30T01:40:33.828Z" agent="Mozilla/5.0 (Windows NT 10.0; Win64; x64) AppleWebKit/537.36 (KHTML, like Gecko) Chrome/116.0.0.0 Safari/537.36 Edg/116.0.1938.62" etag="-0yLKhBVl69xwmb3KYuf" version="21.7.0" type="github">
  <diagram id="C5RBs43oDa-KdzZeNtuy" name="Page-1">
    <mxGraphModel dx="2000" dy="1301" grid="1" gridSize="10" guides="1" tooltips="1" connect="1" arrows="1" fold="1" page="1" pageScale="1" pageWidth="827" pageHeight="1169" math="0" shadow="0">
      <root>
        <mxCell id="WIyWlLk6GJQsqaUBKTNV-0" />
        <mxCell id="WIyWlLk6GJQsqaUBKTNV-1" parent="WIyWlLk6GJQsqaUBKTNV-0" />
        <mxCell id="45Ui71yIqMOSSluN_pJg-0" value="" style="ellipse;html=1;shape=startState;fillColor=#000000;strokeColor=#ff0000;fontSize=15;" vertex="1" parent="WIyWlLk6GJQsqaUBKTNV-1">
          <mxGeometry x="20" y="65" width="30" height="30" as="geometry" />
        </mxCell>
        <mxCell id="45Ui71yIqMOSSluN_pJg-1" value="" style="edgeStyle=orthogonalEdgeStyle;html=1;verticalAlign=bottom;endArrow=open;endSize=8;strokeColor=#ff0000;rounded=0;entryX=0;entryY=0.5;entryDx=0;entryDy=0;exitX=0.858;exitY=0.514;exitDx=0;exitDy=0;exitPerimeter=0;fontSize=15;" edge="1" parent="WIyWlLk6GJQsqaUBKTNV-1" source="45Ui71yIqMOSSluN_pJg-0" target="45Ui71yIqMOSSluN_pJg-2">
          <mxGeometry relative="1" as="geometry">
            <mxPoint x="205" y="60" as="targetPoint" />
            <mxPoint x="10" y="80" as="sourcePoint" />
            <Array as="points" />
          </mxGeometry>
        </mxCell>
        <mxCell id="45Ui71yIqMOSSluN_pJg-2" value="接收数据包" style="rounded=1;whiteSpace=wrap;html=1;arcSize=40;fontColor=#000000;fillColor=#ffffc0;strokeColor=#ff0000;fontSize=15;" vertex="1" parent="WIyWlLk6GJQsqaUBKTNV-1">
          <mxGeometry x="145" y="60" width="120" height="40" as="geometry" />
        </mxCell>
        <mxCell id="45Ui71yIqMOSSluN_pJg-3" value="" style="edgeStyle=orthogonalEdgeStyle;html=1;verticalAlign=bottom;endArrow=open;endSize=8;strokeColor=#ff0000;rounded=0;fontSize=15;" edge="1" parent="WIyWlLk6GJQsqaUBKTNV-1" source="45Ui71yIqMOSSluN_pJg-2">
          <mxGeometry relative="1" as="geometry">
            <mxPoint x="205" y="160" as="targetPoint" />
          </mxGeometry>
        </mxCell>
        <mxCell id="45Ui71yIqMOSSluN_pJg-4" value="检测FDB表" style="rounded=1;whiteSpace=wrap;html=1;arcSize=40;fontColor=#000000;fillColor=#ffffc0;strokeColor=#ff0000;fontSize=15;" vertex="1" parent="WIyWlLk6GJQsqaUBKTNV-1">
          <mxGeometry x="145" y="160" width="120" height="40" as="geometry" />
        </mxCell>
        <mxCell id="45Ui71yIqMOSSluN_pJg-5" value="" style="edgeStyle=orthogonalEdgeStyle;html=1;verticalAlign=bottom;endArrow=open;endSize=8;strokeColor=#ff0000;rounded=0;entryX=0.5;entryY=0;entryDx=0;entryDy=0;fontSize=15;" edge="1" parent="WIyWlLk6GJQsqaUBKTNV-1" source="45Ui71yIqMOSSluN_pJg-4" target="45Ui71yIqMOSSluN_pJg-8">
          <mxGeometry relative="1" as="geometry">
            <mxPoint x="205" y="230" as="targetPoint" />
          </mxGeometry>
        </mxCell>
        <mxCell id="45Ui71yIqMOSSluN_pJg-8" value="" style="rhombus;whiteSpace=wrap;html=1;fontColor=#000000;fillColor=#ffffc0;strokeColor=#ff0000;fontSize=15;" vertex="1" parent="WIyWlLk6GJQsqaUBKTNV-1">
          <mxGeometry x="165" y="250" width="80" height="40" as="geometry" />
        </mxCell>
        <mxCell id="45Ui71yIqMOSSluN_pJg-9" value="检查入方向的ACL规则" style="rounded=1;whiteSpace=wrap;html=1;arcSize=40;fontColor=#000000;fillColor=#ffffc0;strokeColor=#ff0000;fontSize=15;" vertex="1" parent="WIyWlLk6GJQsqaUBKTNV-1">
          <mxGeometry x="319.98" y="250" width="120" height="40" as="geometry" />
        </mxCell>
        <mxCell id="45Ui71yIqMOSSluN_pJg-10" value="数据包上送到CPU处理" style="rounded=1;whiteSpace=wrap;html=1;arcSize=40;fontColor=#000000;fillColor=#ffffc0;strokeColor=#ff0000;fontSize=15;" vertex="1" parent="WIyWlLk6GJQsqaUBKTNV-1">
          <mxGeometry x="145" y="360" width="120" height="40" as="geometry" />
        </mxCell>
        <mxCell id="45Ui71yIqMOSSluN_pJg-12" value="" style="edgeStyle=orthogonalEdgeStyle;html=1;verticalAlign=bottom;endArrow=open;endSize=8;strokeColor=#ff0000;rounded=0;exitX=0.5;exitY=1;exitDx=0;exitDy=0;fontSize=15;" edge="1" parent="WIyWlLk6GJQsqaUBKTNV-1" source="45Ui71yIqMOSSluN_pJg-8" target="45Ui71yIqMOSSluN_pJg-10">
          <mxGeometry relative="1" as="geometry">
            <mxPoint x="215" y="249" as="targetPoint" />
            <mxPoint x="30" y="419" as="sourcePoint" />
          </mxGeometry>
        </mxCell>
        <mxCell id="45Ui71yIqMOSSluN_pJg-13" value="FDB表中是否存在匹配项" style="edgeLabel;html=1;align=center;verticalAlign=middle;resizable=0;points=[];fontSize=15;" vertex="1" connectable="0" parent="45Ui71yIqMOSSluN_pJg-12">
          <mxGeometry x="-0.1582" y="2" relative="1" as="geometry">
            <mxPoint x="-107" y="-89" as="offset" />
          </mxGeometry>
        </mxCell>
        <mxCell id="45Ui71yIqMOSSluN_pJg-14" value="NO" style="edgeLabel;html=1;align=center;verticalAlign=middle;resizable=0;points=[];fontSize=15;" vertex="1" connectable="0" parent="45Ui71yIqMOSSluN_pJg-12">
          <mxGeometry x="-0.0386" relative="1" as="geometry">
            <mxPoint x="-35" y="-4" as="offset" />
          </mxGeometry>
        </mxCell>
        <mxCell id="45Ui71yIqMOSSluN_pJg-15" value="" style="edgeStyle=orthogonalEdgeStyle;html=1;verticalAlign=bottom;endArrow=open;endSize=8;strokeColor=#ff0000;rounded=0;fontSize=15;" edge="1" parent="WIyWlLk6GJQsqaUBKTNV-1">
          <mxGeometry relative="1" as="geometry">
            <mxPoint x="320" y="270" as="targetPoint" />
            <mxPoint x="250" y="269.5" as="sourcePoint" />
            <Array as="points">
              <mxPoint x="245" y="269.5" />
            </Array>
          </mxGeometry>
        </mxCell>
        <mxCell id="45Ui71yIqMOSSluN_pJg-16" value="Yes" style="edgeLabel;html=1;align=center;verticalAlign=middle;resizable=0;points=[];fontSize=15;" vertex="1" connectable="0" parent="45Ui71yIqMOSSluN_pJg-15">
          <mxGeometry x="0.021" y="4" relative="1" as="geometry">
            <mxPoint x="-26" y="-6" as="offset" />
          </mxGeometry>
        </mxCell>
        <mxCell id="45Ui71yIqMOSSluN_pJg-19" value="" style="edgeStyle=orthogonalEdgeStyle;html=1;verticalAlign=bottom;endArrow=open;endSize=8;strokeColor=#ff0000;rounded=0;exitX=0.5;exitY=1;exitDx=0;exitDy=0;entryX=0.5;entryY=0;entryDx=0;entryDy=0;fontSize=15;" edge="1" parent="WIyWlLk6GJQsqaUBKTNV-1" source="45Ui71yIqMOSSluN_pJg-25">
          <mxGeometry relative="1" as="geometry">
            <mxPoint x="379.98" y="359" as="targetPoint" />
            <mxPoint x="494.98" y="359" as="sourcePoint" />
            <Array as="points">
              <mxPoint x="379.98" y="349" />
              <mxPoint x="379.98" y="349" />
            </Array>
          </mxGeometry>
        </mxCell>
        <mxCell id="45Ui71yIqMOSSluN_pJg-22" value="" style="ellipse;html=1;shape=endState;fillColor=#000000;strokeColor=#ff0000;fontSize=15;" vertex="1" parent="WIyWlLk6GJQsqaUBKTNV-1">
          <mxGeometry x="577.49" y="720" width="30" height="30" as="geometry" />
        </mxCell>
        <mxCell id="45Ui71yIqMOSSluN_pJg-26" value="是否存在匹配的ACL规则" style="edgeLabel;html=1;align=center;verticalAlign=middle;resizable=0;points=[];fontSize=15;" vertex="1" connectable="0" parent="WIyWlLk6GJQsqaUBKTNV-1">
          <mxGeometry x="290" y="310" as="geometry" />
        </mxCell>
        <mxCell id="45Ui71yIqMOSSluN_pJg-37" value="" style="edgeStyle=orthogonalEdgeStyle;html=1;verticalAlign=bottom;endArrow=open;endSize=8;strokeColor=#ff0000;rounded=0;fontSize=15;" edge="1" parent="WIyWlLk6GJQsqaUBKTNV-1">
          <mxGeometry relative="1" as="geometry">
            <mxPoint x="514.98" y="360.5" as="targetPoint" />
            <mxPoint x="424.98" y="360" as="sourcePoint" />
            <Array as="points">
              <mxPoint x="419.98" y="360" />
            </Array>
          </mxGeometry>
        </mxCell>
        <mxCell id="45Ui71yIqMOSSluN_pJg-38" value="Yes" style="edgeLabel;html=1;align=center;verticalAlign=middle;resizable=0;points=[];fontSize=15;" vertex="1" connectable="0" parent="45Ui71yIqMOSSluN_pJg-37">
          <mxGeometry x="0.021" y="4" relative="1" as="geometry">
            <mxPoint x="-1" y="-6" as="offset" />
          </mxGeometry>
        </mxCell>
        <mxCell id="45Ui71yIqMOSSluN_pJg-39" value="" style="edgeStyle=orthogonalEdgeStyle;html=1;verticalAlign=bottom;endArrow=open;endSize=8;strokeColor=#ff0000;rounded=0;exitX=0.5;exitY=1;exitDx=0;exitDy=0;entryX=0.5;entryY=0;entryDx=0;entryDy=0;fontSize=15;" edge="1" parent="WIyWlLk6GJQsqaUBKTNV-1" source="45Ui71yIqMOSSluN_pJg-27">
          <mxGeometry relative="1" as="geometry">
            <mxPoint x="590" y="521" as="targetPoint" />
            <mxPoint x="589.5" y="441" as="sourcePoint" />
            <Array as="points" />
          </mxGeometry>
        </mxCell>
        <mxCell id="45Ui71yIqMOSSluN_pJg-41" value="执行入方向的ACL规则，进行流量计费" style="rounded=1;whiteSpace=wrap;html=1;arcSize=40;fontColor=#000000;fillColor=#ffffc0;strokeColor=#ff0000;fontSize=15;" vertex="1" parent="WIyWlLk6GJQsqaUBKTNV-1">
          <mxGeometry x="514.98" y="339" width="155.02" height="41" as="geometry" />
        </mxCell>
        <mxCell id="45Ui71yIqMOSSluN_pJg-42" value="" style="edgeStyle=orthogonalEdgeStyle;html=1;verticalAlign=bottom;endArrow=open;endSize=8;strokeColor=#ff0000;rounded=0;exitX=0.5;exitY=1;exitDx=0;exitDy=0;entryX=0.5;entryY=0;entryDx=0;entryDy=0;fontSize=15;" edge="1" parent="WIyWlLk6GJQsqaUBKTNV-1" target="45Ui71yIqMOSSluN_pJg-27">
          <mxGeometry relative="1" as="geometry">
            <mxPoint x="590" y="521" as="targetPoint" />
            <mxPoint x="589.5" y="441" as="sourcePoint" />
            <Array as="points" />
          </mxGeometry>
        </mxCell>
        <mxCell id="45Ui71yIqMOSSluN_pJg-27" value="检查出方向的ACL规则" style="rounded=1;whiteSpace=wrap;html=1;arcSize=40;fontColor=#000000;fillColor=#ffffc0;strokeColor=#ff0000;fontSize=15;" vertex="1" parent="WIyWlLk6GJQsqaUBKTNV-1">
          <mxGeometry x="530" y="440" width="120" height="41" as="geometry" />
        </mxCell>
        <mxCell id="45Ui71yIqMOSSluN_pJg-43" value="" style="edgeStyle=orthogonalEdgeStyle;html=1;verticalAlign=bottom;endArrow=open;endSize=8;strokeColor=#ff0000;rounded=0;exitX=0.5;exitY=1;exitDx=0;exitDy=0;entryX=0.5;entryY=0;entryDx=0;entryDy=0;fontSize=15;" edge="1" parent="WIyWlLk6GJQsqaUBKTNV-1" source="45Ui71yIqMOSSluN_pJg-9" target="45Ui71yIqMOSSluN_pJg-25">
          <mxGeometry relative="1" as="geometry">
            <mxPoint x="379.98" y="359" as="targetPoint" />
            <mxPoint x="379.98" y="289" as="sourcePoint" />
            <Array as="points" />
          </mxGeometry>
        </mxCell>
        <mxCell id="45Ui71yIqMOSSluN_pJg-25" value="" style="rhombus;whiteSpace=wrap;html=1;fontColor=#000000;fillColor=#ffffc0;strokeColor=#ff0000;fontSize=15;" vertex="1" parent="WIyWlLk6GJQsqaUBKTNV-1">
          <mxGeometry x="339.98" y="340" width="80" height="40" as="geometry" />
        </mxCell>
        <mxCell id="45Ui71yIqMOSSluN_pJg-46" value="NO" style="edgeLabel;html=1;align=center;verticalAlign=middle;resizable=0;points=[];fontSize=15;" vertex="1" connectable="0" parent="WIyWlLk6GJQsqaUBKTNV-1">
          <mxGeometry x="344.98" y="401" as="geometry" />
        </mxCell>
        <mxCell id="45Ui71yIqMOSSluN_pJg-47" value="" style="edgeStyle=orthogonalEdgeStyle;html=1;verticalAlign=bottom;endArrow=open;endSize=8;strokeColor=#ff0000;rounded=0;exitX=0.5;exitY=1;exitDx=0;exitDy=0;entryX=0;entryY=0.5;entryDx=0;entryDy=0;fontSize=15;" edge="1" parent="WIyWlLk6GJQsqaUBKTNV-1" target="45Ui71yIqMOSSluN_pJg-59">
          <mxGeometry relative="1" as="geometry">
            <mxPoint x="379.98" y="430" as="targetPoint" />
            <mxPoint x="378.98" y="380" as="sourcePoint" />
            <Array as="points">
              <mxPoint x="380" y="380" />
              <mxPoint x="380" y="630" />
            </Array>
          </mxGeometry>
        </mxCell>
        <mxCell id="45Ui71yIqMOSSluN_pJg-51" value="" style="edgeStyle=orthogonalEdgeStyle;html=1;verticalAlign=bottom;endArrow=open;endSize=8;strokeColor=#ff0000;rounded=0;exitX=0.5;exitY=1;exitDx=0;exitDy=0;entryX=0.5;entryY=0;entryDx=0;entryDy=0;fontSize=15;" edge="1" parent="WIyWlLk6GJQsqaUBKTNV-1" source="45Ui71yIqMOSSluN_pJg-57">
          <mxGeometry relative="1" as="geometry">
            <mxPoint x="590" y="539" as="targetPoint" />
            <mxPoint x="705" y="539" as="sourcePoint" />
            <Array as="points">
              <mxPoint x="590" y="529" />
              <mxPoint x="590" y="529" />
            </Array>
          </mxGeometry>
        </mxCell>
        <mxCell id="45Ui71yIqMOSSluN_pJg-52" value="是否存在匹配的ACL规则" style="edgeLabel;html=1;align=center;verticalAlign=middle;resizable=0;points=[];fontSize=15;" vertex="1" connectable="0" parent="WIyWlLk6GJQsqaUBKTNV-1">
          <mxGeometry x="500" y="510" as="geometry" />
        </mxCell>
        <mxCell id="45Ui71yIqMOSSluN_pJg-53" value="" style="edgeStyle=orthogonalEdgeStyle;html=1;verticalAlign=bottom;endArrow=open;endSize=8;strokeColor=#ff0000;rounded=0;fontSize=15;" edge="1" parent="WIyWlLk6GJQsqaUBKTNV-1">
          <mxGeometry relative="1" as="geometry">
            <mxPoint x="705" y="541" as="targetPoint" />
            <mxPoint x="635" y="540" as="sourcePoint" />
            <Array as="points">
              <mxPoint x="630" y="540" />
            </Array>
          </mxGeometry>
        </mxCell>
        <mxCell id="45Ui71yIqMOSSluN_pJg-54" value="Yes" style="edgeLabel;html=1;align=center;verticalAlign=middle;resizable=0;points=[];fontSize=15;" vertex="1" connectable="0" parent="45Ui71yIqMOSSluN_pJg-53">
          <mxGeometry x="0.021" y="4" relative="1" as="geometry">
            <mxPoint x="-1" y="-6" as="offset" />
          </mxGeometry>
        </mxCell>
        <mxCell id="45Ui71yIqMOSSluN_pJg-55" value="执行出方向的ACL规则，进行流量计费" style="rounded=1;whiteSpace=wrap;html=1;arcSize=40;fontColor=#000000;fillColor=#ffffc0;strokeColor=#ff0000;fontSize=15;" vertex="1" parent="WIyWlLk6GJQsqaUBKTNV-1">
          <mxGeometry x="705" y="520" width="140.02" height="40" as="geometry" />
        </mxCell>
        <mxCell id="45Ui71yIqMOSSluN_pJg-57" value="" style="rhombus;whiteSpace=wrap;html=1;fontColor=#000000;fillColor=#ffffc0;strokeColor=#ff0000;fontSize=15;" vertex="1" parent="WIyWlLk6GJQsqaUBKTNV-1">
          <mxGeometry x="550" y="520" width="80" height="40" as="geometry" />
        </mxCell>
        <mxCell id="45Ui71yIqMOSSluN_pJg-59" value="进行数据包转发" style="rounded=1;whiteSpace=wrap;html=1;arcSize=40;fontColor=#000000;fillColor=#ffffc0;strokeColor=#ff0000;fontSize=15;" vertex="1" parent="WIyWlLk6GJQsqaUBKTNV-1">
          <mxGeometry x="530" y="610" width="120" height="40" as="geometry" />
        </mxCell>
        <mxCell id="45Ui71yIqMOSSluN_pJg-60" value="NO" style="edgeLabel;html=1;align=center;verticalAlign=middle;resizable=0;points=[];fontSize=15;" vertex="1" connectable="0" parent="WIyWlLk6GJQsqaUBKTNV-1">
          <mxGeometry x="555" y="581" as="geometry" />
        </mxCell>
        <mxCell id="45Ui71yIqMOSSluN_pJg-61" value="" style="edgeStyle=orthogonalEdgeStyle;html=1;verticalAlign=bottom;endArrow=open;endSize=8;strokeColor=#ff0000;rounded=0;exitX=0.5;exitY=1;exitDx=0;exitDy=0;entryX=0.5;entryY=0;entryDx=0;entryDy=0;fontSize=15;" edge="1" parent="WIyWlLk6GJQsqaUBKTNV-1" target="45Ui71yIqMOSSluN_pJg-59">
          <mxGeometry relative="1" as="geometry">
            <mxPoint x="589" y="630" as="targetPoint" />
            <mxPoint x="589" y="560" as="sourcePoint" />
            <Array as="points">
              <mxPoint x="590" y="560" />
            </Array>
          </mxGeometry>
        </mxCell>
        <mxCell id="45Ui71yIqMOSSluN_pJg-62" value="" style="edgeStyle=orthogonalEdgeStyle;html=1;verticalAlign=bottom;endArrow=open;endSize=8;strokeColor=#ff0000;rounded=0;exitX=0.5;exitY=1;exitDx=0;exitDy=0;fontSize=15;" edge="1" parent="WIyWlLk6GJQsqaUBKTNV-1" source="45Ui71yIqMOSSluN_pJg-10" target="45Ui71yIqMOSSluN_pJg-22">
          <mxGeometry relative="1" as="geometry">
            <mxPoint x="190" y="590" as="targetPoint" />
            <mxPoint x="190" y="520" as="sourcePoint" />
            <Array as="points">
              <mxPoint x="205" y="735" />
            </Array>
          </mxGeometry>
        </mxCell>
        <mxCell id="45Ui71yIqMOSSluN_pJg-65" value="" style="edgeStyle=orthogonalEdgeStyle;html=1;verticalAlign=bottom;endArrow=open;endSize=8;strokeColor=#ff0000;rounded=0;exitX=0.5;exitY=1;exitDx=0;exitDy=0;entryX=1;entryY=0.5;entryDx=0;entryDy=0;fontSize=15;" edge="1" parent="WIyWlLk6GJQsqaUBKTNV-1" target="45Ui71yIqMOSSluN_pJg-59">
          <mxGeometry relative="1" as="geometry">
            <mxPoint x="765.02" y="630" as="targetPoint" />
            <mxPoint x="764.48" y="560" as="sourcePoint" />
            <Array as="points">
              <mxPoint x="765.02" y="630" />
            </Array>
          </mxGeometry>
        </mxCell>
        <mxCell id="45Ui71yIqMOSSluN_pJg-66" value="" style="edgeStyle=orthogonalEdgeStyle;html=1;verticalAlign=bottom;endArrow=open;endSize=8;strokeColor=#ff0000;rounded=0;exitX=0.5;exitY=1;exitDx=0;exitDy=0;entryX=0.5;entryY=0;entryDx=0;entryDy=0;fontSize=15;" edge="1" parent="WIyWlLk6GJQsqaUBKTNV-1" target="45Ui71yIqMOSSluN_pJg-22">
          <mxGeometry relative="1" as="geometry">
            <mxPoint x="575.5" y="700" as="targetPoint" />
            <mxPoint x="574.48" y="650" as="sourcePoint" />
            <Array as="points" />
          </mxGeometry>
        </mxCell>
        <mxCell id="45Ui71yIqMOSSluN_pJg-67" value="" style="edgeStyle=orthogonalEdgeStyle;html=1;verticalAlign=bottom;endArrow=open;endSize=8;strokeColor=#ff0000;rounded=0;exitX=0.5;exitY=1;exitDx=0;exitDy=0;entryX=0.5;entryY=0;entryDx=0;entryDy=0;fontSize=15;" edge="1" parent="WIyWlLk6GJQsqaUBKTNV-1" target="45Ui71yIqMOSSluN_pJg-27">
          <mxGeometry relative="1" as="geometry">
            <mxPoint x="589.5" y="421" as="targetPoint" />
            <mxPoint x="589.5" y="381" as="sourcePoint" />
            <Array as="points" />
          </mxGeometry>
        </mxCell>
      </root>
    </mxGraphModel>
  </diagram>
</mxfile>
